<svg class="rich-terminal" viewBox="0 0 994 635.5999999999999" xmlns="http://www.w3.org/2000/svg">
    <!-- Generated with Rich https://www.textualize.io -->
    <style>

    @font-face {
        font-family: "Fira Code";
        src: local("FiraCode-Regular"),
                url("https://cdnjs.cloudflare.com/ajax/libs/firacode/6.2.0/woff2/FiraCode-Regular.woff2") format("woff2"),
                url("https://cdnjs.cloudflare.com/ajax/libs/firacode/6.2.0/woff/FiraCode-Regular.woff") format("woff");
        font-style: normal;
        font-weight: 400;
    }
    @font-face {
        font-family: "Fira Code";
        src: local("FiraCode-Bold"),
                url("https://cdnjs.cloudflare.com/ajax/libs/firacode/6.2.0/woff2/FiraCode-Bold.woff2") format("woff2"),
                url("https://cdnjs.cloudflare.com/ajax/libs/firacode/6.2.0/woff/FiraCode-Bold.woff") format("woff");
        font-style: bold;
        font-weight: 700;
    }

    .terminal-612110395-matrix {
        font-family: Fira Code, monospace;
        font-size: 20px;
        line-height: 24.4px;
        font-variant-east-asian: full-width;
    }

    .terminal-612110395-title {
        font-size: 18px;
        font-weight: bold;
        font-family: arial;
    }

    .terminal-612110395-r1 { fill: #c5c8c6 }
.terminal-612110395-r2 { fill: #e0e0e0 }
.terminal-612110395-r3 { fill: #0178d4 }
.terminal-612110395-r4 { fill: #242f38 }
.terminal-612110395-r5 { fill: #fea62b;font-weight: bold }
.terminal-612110395-r6 { fill: #797979 }
.terminal-612110395-r7 { fill: #ffff00;font-weight: bold }
.terminal-612110395-r8 { fill: #999999 }
.terminal-612110395-r9 { fill: #008000 }
.terminal-612110395-r10 { fill: #ffa62b;font-weight: bold }
.terminal-612110395-r11 { fill: #495259 }
    </style>

    <defs>
    <clipPath id="terminal-612110395-clip-terminal">
      <rect x="0" y="0" width="975.0" height="584.5999999999999" />
    </clipPath>
    <clipPath id="terminal-612110395-line-0">
    <rect x="0" y="1.5" width="976" height="24.65"/>
            </clipPath>
<clipPath id="terminal-612110395-line-1">
    <rect x="0" y="25.9" width="976" height="24.65"/>
            </clipPath>
<clipPath id="terminal-612110395-line-2">
    <rect x="0" y="50.3" width="976" height="24.65"/>
            </clipPath>
<clipPath id="terminal-612110395-line-3">
    <rect x="0" y="74.7" width="976" height="24.65"/>
            </clipPath>
<clipPath id="terminal-612110395-line-4">
    <rect x="0" y="99.1" width="976" height="24.65"/>
            </clipPath>
<clipPath id="terminal-612110395-line-5">
    <rect x="0" y="123.5" width="976" height="24.65"/>
            </clipPath>
<clipPath id="terminal-612110395-line-6">
    <rect x="0" y="147.9" width="976" height="24.65"/>
            </clipPath>
<clipPath id="terminal-612110395-line-7">
    <rect x="0" y="172.3" width="976" height="24.65"/>
            </clipPath>
<clipPath id="terminal-612110395-line-8">
    <rect x="0" y="196.7" width="976" height="24.65"/>
            </clipPath>
<clipPath id="terminal-612110395-line-9">
    <rect x="0" y="221.1" width="976" height="24.65"/>
            </clipPath>
<clipPath id="terminal-612110395-line-10">
    <rect x="0" y="245.5" width="976" height="24.65"/>
            </clipPath>
<clipPath id="terminal-612110395-line-11">
    <rect x="0" y="269.9" width="976" height="24.65"/>
            </clipPath>
<clipPath id="terminal-612110395-line-12">
    <rect x="0" y="294.3" width="976" height="24.65"/>
            </clipPath>
<clipPath id="terminal-612110395-line-13">
    <rect x="0" y="318.7" width="976" height="24.65"/>
            </clipPath>
<clipPath id="terminal-612110395-line-14">
    <rect x="0" y="343.1" width="976" height="24.65"/>
            </clipPath>
<clipPath id="terminal-612110395-line-15">
    <rect x="0" y="367.5" width="976" height="24.65"/>
            </clipPath>
<clipPath id="terminal-612110395-line-16">
    <rect x="0" y="391.9" width="976" height="24.65"/>
            </clipPath>
<clipPath id="terminal-612110395-line-17">
    <rect x="0" y="416.3" width="976" height="24.65"/>
            </clipPath>
<clipPath id="terminal-612110395-line-18">
    <rect x="0" y="440.7" width="976" height="24.65"/>
            </clipPath>
<clipPath id="terminal-612110395-line-19">
    <rect x="0" y="465.1" width="976" height="24.65"/>
            </clipPath>
<clipPath id="terminal-612110395-line-20">
    <rect x="0" y="489.5" width="976" height="24.65"/>
            </clipPath>
<clipPath id="terminal-612110395-line-21">
    <rect x="0" y="513.9" width="976" height="24.65"/>
            </clipPath>
<clipPath id="terminal-612110395-line-22">
    <rect x="0" y="538.3" width="976" height="24.65"/>
            </clipPath>
    </defs>

    <rect fill="#292929" stroke="rgba(255,255,255,0.35)" stroke-width="1" x="1" y="1" width="992" height="633.6" rx="8"/><text class="terminal-612110395-title" fill="#c5c8c6" text-anchor="middle" x="496" y="27">GitGraft&#160;Branch&#160;Selector</text>
            <g transform="translate(26,22)">
            <circle cx="0" cy="0" r="7" fill="#ff5f57"/>
            <circle cx="22" cy="0" r="7" fill="#febc2e"/>
            <circle cx="44" cy="0" r="7" fill="#28c840"/>
            </g>
        
    <g transform="translate(9, 41)" clip-path="url(#terminal-612110395-clip-terminal)">
    <rect fill="#242f38" x="0" y="1.5" width="12.2" height="24.65" shape-rendering="crispEdges"/><rect fill="#242f38" x="12.2" y="1.5" width="12.2" height="24.65" shape-rendering="crispEdges"/><rect fill="#242f38" x="24.4" y="1.5" width="61" height="24.65" shape-rendering="crispEdges"/><rect fill="#242f38" x="85.4" y="1.5" width="12.2" height="24.65" shape-rendering="crispEdges"/><rect fill="#242f38" x="97.6" y="1.5" width="268.4" height="24.65" shape-rendering="crispEdges"/><rect fill="#242f38" x="366" y="1.5" width="207.4" height="24.65" shape-rendering="crispEdges"/><rect fill="#242f38" x="573.4" y="1.5" width="280.6" height="24.65" shape-rendering="crispEdges"/><rect fill="#242f38" x="854" y="1.5" width="12.2" height="24.65" shape-rendering="crispEdges"/><rect fill="#242f38" x="866.2" y="1.5" width="0" height="24.65" shape-rendering="crispEdges"/><rect fill="#242f38" x="866.2" y="1.5" width="97.6" height="24.65" shape-rendering="crispEdges"/><rect fill="#242f38" x="963.8" y="1.5" width="12.2" height="24.65" shape-rendering="crispEdges"/><rect fill="#242f38" x="0" y="25.9" width="378.2" height="24.65" shape-rendering="crispEdges"/><rect fill="#121212" x="378.2" y="25.9" width="12.2" height="24.65" shape-rendering="crispEdges"/><rect fill="#121212" x="390.4" y="25.9" width="585.6" height="24.65" shape-rendering="crispEdges"/><rect fill="#242f38" x="0" y="50.3" width="12.2" height="24.65" shape-rendering="crispEdges"/><rect fill="#0178d4" x="12.2" y="50.3" width="12.2" height="24.65" shape-rendering="crispEdges"/><rect fill="#272727" x="24.4" y="50.3" width="329.4" height="24.65" shape-rendering="crispEdges"/><rect fill="#242f38" x="353.8" y="50.3" width="12.2" height="24.65" shape-rendering="crispEdges"/><rect fill="#242f38" x="366" y="50.3" width="12.2" height="24.65" shape-rendering="crispEdges"/><rect fill="#121212" x="378.2" y="50.3" width="12.2" height="24.65" shape-rendering="crispEdges"/><rect fill="#121212" x="390.4" y="50.3" width="24.4" height="24.65" shape-rendering="crispEdges"/><rect fill="#121212" x="414.8" y="50.3" width="195.2" height="24.65" shape-rendering="crispEdges"/><rect fill="#121212" x="610" y="50.3" width="341.6" height="24.65" shape-rendering="crispEdges"/><rect fill="#121212" x="951.6" y="50.3" width="24.4" height="24.65" shape-rendering="crispEdges"/><rect fill="#242f38" x="0" y="74.7" width="12.2" height="24.65" shape-rendering="crispEdges"/><rect fill="#0178d4" x="12.2" y="74.7" width="12.2" height="24.65" shape-rendering="crispEdges"/><rect fill="#272727" x="24.4" y="74.7" width="24.4" height="24.65" shape-rendering="crispEdges"/><rect fill="#272727" x="48.8" y="74.7" width="219.6" height="24.65" shape-rendering="crispEdges"/><rect fill="#272727" x="268.4" y="74.7" width="61" height="24.65" shape-rendering="crispEdges"/><rect fill="#272727" x="329.4" y="74.7" width="24.4" height="24.65" shape-rendering="crispEdges"/><rect fill="#242f38" x="353.8" y="74.7" width="12.2" height="24.65" shape-rendering="crispEdges"/><rect fill="#242f38" x="366" y="74.7" width="12.2" height="24.65" shape-rendering="crispEdges"/><rect fill="#121212" x="378.2" y="74.7" width="12.2" height="24.65" shape-rendering="crispEdges"/><rect fill="#121212" x="390.4" y="74.7" width="24.4" height="24.65" shape-rendering="crispEdges"/><rect fill="#121212" x="414.8" y="74.7" width="524.6" height="24.65" shape-rendering="crispEdges"/><rect fill="#121212" x="939.4" y="74.7" width="12.2" height="24.65" shape-rendering="crispEdges"/><rect fill="#121212" x="951.6" y="74.7" width="24.4" height="24.65" shape-rendering="crispEdges"/><rect fill="#242f38" x="0" y="99.1" width="12.2" height="24.65" shape-rendering="crispEdges"/><rect fill="#0178d4" x="12.2" y="99.1" width="12.2" height="24.65" shape-rendering="crispEdges"/><rect fill="#272727" x="24.4" y="99.1" width="329.4" height="24.65" shape-rendering="crispEdges"/><rect fill="#242f38" x="353.8" y="99.1" width="12.2" height="24.65" shape-rendering="crispEdges"/><rect fill="#242f38" x="366" y="99.1" width="12.2" height="24.65" shape-rendering="crispEdges"/><rect fill="#121212" x="378.2" y="99.1" width="12.2" height="24.65" shape-rendering="crispEdges"/><rect fill="#121212" x="390.4" y="99.1" width="24.4" height="24.65" shape-rendering="crispEdges"/><rect fill="#121212" x="414.8" y="99.1" width="536.8" height="24.65" shape-rendering="crispEdges"/><rect fill="#121212" x="951.6" y="99.1" width="24.4" height="24.65" shape-rendering="crispEdges"/><rect fill="#242f38" x="0" y="123.5" width="378.2" height="24.65" shape-rendering="crispEdges"/><rect fill="#121212" x="378.2" y="123.5" width="12.2" height="24.65" shape-rendering="crispEdges"/><rect fill="#121212" x="390.4" y="123.5" width="24.4" height="24.65" shape-rendering="crispEdges"/><rect fill="#121212" x="414.8" y="123.5" width="85.4" height="24.65" shape-rendering="crispEdges"/><rect fill="#121212" x="500.2" y="123.5" width="12.2" height="24.65" shape-rendering="crispEdges"/><rect fill="#121212" x="512.4" y="123.5" width="195.2" height="24.65" shape-rendering="crispEdges"/><rect fill="#121212" x="707.6" y="123.5" width="244" height="24.65" shape-rendering="crispEdges"/><rect fill="#121212" x="951.6" y="123.5" width="24.4" height="24.65" shape-rendering="crispEdges"/><rect fill="#1e1e1e" x="0" y="147.9" width="12.2" height="24.65" shape-rendering="crispEdges"/><rect fill="#1e1e1e" x="12.2" y="147.9" width="244" height="24.65" shape-rendering="crispEdges"/><rect fill="#1e1e1e" x="256.2" y="147.9" width="109.8" height="24.65" shape-rendering="crispEdges"/><rect fill="#1e1e1e" x="366" y="147.9" width="12.2" height="24.65" shape-rendering="crispEdges"/><rect fill="#121212" x="378.2" y="147.9" width="12.2" height="24.65" shape-rendering="crispEdges"/><rect fill="#121212" x="390.4" y="147.9" width="24.4" height="24.65" shape-rendering="crispEdges"/><rect fill="#121212" x="414.8" y="147.9" width="207.4" height="24.65" shape-rendering="crispEdges"/><rect fill="#121212" x="622.2" y="147.9" width="329.4" height="24.65" shape-rendering="crispEdges"/><rect fill="#121212" x="951.6" y="147.9" width="24.4" height="24.65" shape-rendering="crispEdges"/><rect fill="#153854" x="0" y="172.3" width="12.2" height="24.65" shape-rendering="crispEdges"/><rect fill="#153854" x="12.2" y="172.3" width="353.8" height="24.65" shape-rendering="crispEdges"/><rect fill="#153854" x="366" y="172.3" width="12.2" height="24.65" shape-rendering="crispEdges"/><rect fill="#121212" x="378.2" y="172.3" width="12.2" height="24.65" shape-rendering="crispEdges"/><rect fill="#121212" x="390.4" y="172.3" width="24.4" height="24.65" shape-rendering="crispEdges"/><rect fill="#121212" x="414.8" y="172.3" width="439.2" height="24.65" shape-rendering="crispEdges"/><rect fill="#121212" x="854" y="172.3" width="97.6" height="24.65" shape-rendering="crispEdges"/><rect fill="#121212" x="951.6" y="172.3" width="24.4" height="24.65" shape-rendering="crispEdges"/><rect fill="#1e1e1e" x="0" y="196.7" width="12.2" height="24.65" shape-rendering="crispEdges"/><rect fill="#1e1e1e" x="12.2" y="196.7" width="305" height="24.65" shape-rendering="crispEdges"/><rect fill="#1e1e1e" x="317.2" y="196.7" width="48.8" height="24.65" shape-rendering="crispEdges"/><rect fill="#1e1e1e" x="366" y="196.7" width="12.2" height="24.65" shape-rendering="crispEdges"/><rect fill="#121212" x="378.2" y="196.7" width="12.2" height="24.65" shape-rendering="crispEdges"/><rect fill="#121212" x="390.4" y="196.7" width="24.4" height="24.65" shape-rendering="crispEdges"/><rect fill="#121212" x="414.8" y="196.7" width="512.4" height="24.65" shape-rendering="crispEdges"/><rect fill="#121212" x="927.2" y="196.7" width="24.4" height="24.65" shape-rendering="crispEdges"/><rect fill="#121212" x="951.6" y="196.7" width="24.4" height="24.65" shape-rendering="crispEdges"/><rect fill="#1e1e1e" x="0" y="221.1" width="12.2" height="24.65" shape-rendering="crispEdges"/><rect fill="#1e1e1e" x="12.2" y="221.1" width="305" height="24.65" shape-rendering="crispEdges"/><rect fill="#1e1e1e" x="317.2" y="221.1" width="48.8" height="24.65" shape-rendering="crispEdges"/><rect fill="#1e1e1e" x="366" y="221.1" width="12.2" height="24.65" shape-rendering="crispEdges"/><rect fill="#121212" x="378.2" y="221.1" width="12.2" height="24.65" shape-rendering="crispEdges"/><rect fill="#121212" x="390.4" y="221.1" width="24.4" height="24.65" shape-rendering="crispEdges"/><rect fill="#121212" x="414.8" y="221.1" width="536.8" height="24.65" shape-rendering="crispEdges"/><rect fill="#121212" x="951.6" y="221.1" width="24.4" height="24.65" shape-rendering="crispEdges"/><rect fill="#1e1e1e" x="0" y="245.5" width="378.2" height="24.65" shape-rendering="crispEdges"/><rect fill="#121212" x="378.2" y="245.5" width="12.2" height="24.65" shape-rendering="crispEdges"/><rect fill="#121212" x="390.4" y="245.5" width="24.4" height="24.65" shape-rendering="crispEdges"/><rect fill="#121212" x="414.8" y="245.5" width="85.4" height="24.65" shape-rendering="crispEdges"/><rect fill="#121212" x="500.2" y="245.5" width="12.2" height="24.65" shape-rendering="crispEdges"/><rect fill="#121212" x="512.4" y="245.5" width="195.2" height="24.65" shape-rendering="crispEdges"/><rect fill="#121212" x="707.6" y="245.5" width="244" height="24.65" shape-rendering="crispEdges"/><rect fill="#121212" x="951.6" y="245.5" width="24.4" height="24.65" shape-rendering="crispEdges"/><rect fill="#1e1e1e" x="0" y="269.9" width="378.2" height="24.65" shape-rendering="crispEdges"/><rect fill="#121212" x="378.2" y="269.9" width="12.2" height="24.65" shape-rendering="crispEdges"/><rect fill="#121212" x="390.4" y="269.9" width="24.4" height="24.65" shape-rendering="crispEdges"/><rect fill="#121212" x="414.8" y="269.9" width="207.4" height="24.65" shape-rendering="crispEdges"/><rect fill="#121212" x="622.2" y="269.9" width="329.4" height="24.65" shape-rendering="crispEdges"/><rect fill="#121212" x="951.6" y="269.9" width="24.4" height="24.65" shape-rendering="crispEdges"/><rect fill="#1e1e1e" x="0" y="294.3" width="378.2" height="24.65" shape-rendering="crispEdges"/><rect fill="#121212" x="378.2" y="294.3" width="12.2" height="24.65" shape-rendering="crispEdges"/><rect fill="#121212" x="390.4" y="294.3" width="24.4" height="24.65" shape-rendering="crispEdges"/><rect fill="#121212" x="414.8" y="294.3" width="146.4" height="24.65" shape-rendering="crispEdges"/><rect fill="#121212" x="561.2" y="294.3" width="390.4" height="24.65" shape-rendering="crispEdges"/><rect fill="#121212" x="951.6" y="294.3" width="24.4" height="24.65" shape-rendering="crispEdges"/><rect fill="#1e1e1e" x="0" y="318.7" width="378.2" height="24.65" shape-rendering="crispEdges"/><rect fill="#121212" x="378.2" y="318.7" width="12.2" height="24.65" shape-rendering="crispEdges"/><rect fill="#121212" x="390.4" y="318.7" width="24.4" height="24.65" shape-rendering="crispEdges"/><rect fill="#121212" x="414.8" y="318.7" width="536.8" height="24.65" shape-rendering="crispEdges"/><rect fill="#121212" x="951.6" y="318.7" width="24.4" height="24.65" shape-rendering="crispEdges"/><rect fill="#1e1e1e" x="0" y="343.1" width="378.2" height="24.65" shape-rendering="crispEdges"/><rect fill="#121212" x="378.2" y="343.1" width="12.2" height="24.65" shape-rendering="crispEdges"/><rect fill="#121212" x="390.4" y="343.1" width="24.4" height="24.65" shape-rendering="crispEdges"/><rect fill="#121212" x="414.8" y="343.1" width="85.4" height="24.65" shape-rendering="crispEdges"/><rect fill="#121212" x="500.2" y="343.1" width="12.2" height="24.65" shape-rendering="crispEdges"/><rect fill="#121212" x="512.4" y="343.1" width="195.2" height="24.65" shape-rendering="crispEdges"/><rect fill="#121212" x="707.6" y="343.1" width="244" height="24.65" shape-rendering="crispEdges"/><rect fill="#121212" x="951.6" y="343.1" width="24.4" height="24.65" shape-rendering="crispEdges"/><rect fill="#1e1e1e" x="0" y="367.5" width="378.2" height="24.65" shape-rendering="crispEdges"/><rect fill="#121212" x="378.2" y="367.5" width="12.2" height="24.65" shape-rendering="crispEdges"/><rect fill="#121212" x="390.4" y="367.5" width="24.4" height="24.65" shape-rendering="crispEdges"/><rect fill="#121212" x="414.8" y="367.5" width="134.2" height="24.65" shape-rendering="crispEdges"/><rect fill="#121212" x="549" y="367.5" width="402.6" height="24.65" shape-rendering="crispEdges"/><rect fill="#121212" x="951.6" y="367.5" width="24.4" height="24.65" shape-rendering="crispEdges"/><rect fill="#1e1e1e" x="0" y="391.9" width="378.2" height="24.65" shape-rendering="crispEdges"/><rect fill="#121212" x="378.2" y="391.9" width="12.2" height="24.65" shape-rendering="crispEdges"/><rect fill="#121212" x="390.4" y="391.9" width="24.4" height="24.65" shape-rendering="crispEdges"/><rect fill="#121212" x="414.8" y="391.9" width="170.8" height="24.65" shape-rendering="crispEdges"/><rect fill="#121212" x="585.6" y="391.9" width="366" height="24.65" shape-rendering="crispEdges"/><rect fill="#121212" x="951.6" y="391.9" width="24.4" height="24.65" shape-rendering="crispEdges"/><rect fill="#1e1e1e" x="0" y="416.3" width="378.2" height="24.65" shape-rendering="crispEdges"/><rect fill="#121212" x="378.2" y="416.3" width="12.2" height="24.65" shape-rendering="crispEdges"/><rect fill="#121212" x="390.4" y="416.3" width="24.4" height="24.65" shape-rendering="crispEdges"/><rect fill="#121212" x="414.8" y="416.3" width="536.8" height="24.65" shape-rendering="crispEdges"/><rect fill="#121212" x="951.6" y="416.3" width="24.4" height="24.65" shape-rendering="crispEdges"/><rect fill="#1e1e1e" x="0" y="440.7" width="378.2" height="24.65" shape-rendering="crispEdges"/><rect fill="#121212" x="378.2" y="440.7" width="12.2" height="24.65" shape-rendering="crispEdges"/><rect fill="#121212" x="390.4" y="440.7" width="24.4" height="24.65" shape-rendering="crispEdges"/><rect fill="#121212" x="414.8" y="440.7" width="536.8" height="24.65" shape-rendering="crispEdges"/><rect fill="#121212" x="951.6" y="440.7" width="24.4" height="24.65" shape-rendering="crispEdges"/><rect fill="#1e1e1e" x="0" y="465.1" width="378.2" height="24.65" shape-rendering="crispEdges"/><rect fill="#121212" x="378.2" y="465.1" width="12.2" height="24.65" shape-rendering="crispEdges"/><rect fill="#121212" x="390.4" y="465.1" width="24.4" height="24.65" shape-rendering="crispEdges"/><rect fill="#121212" x="414.8" y="465.1" width="536.8" height="24.65" shape-rendering="crispEdges"/><rect fill="#121212" x="951.6" y="465.1" width="24.4" height="24.65" shape-rendering="crispEdges"/><rect fill="#1e1e1e" x="0" y="489.5" width="378.2" height="24.65" shape-rendering="crispEdges"/><rect fill="#121212" x="378.2" y="489.5" width="12.2" height="24.65" shape-rendering="crispEdges"/><rect fill="#121212" x="390.4" y="489.5" width="24.4" height="24.65" shape-rendering="crispEdges"/><rect fill="#121212" x="414.8" y="489.5" width="536.8" height="24.65" shape-rendering="crispEdges"/><rect fill="#121212" x="951.6" y="489.5" width="24.4" height="24.65" shape-rendering="crispEdges"/><rect fill="#1e1e1e" x="0" y="513.9" width="378.2" height="24.65" shape-rendering="crispEdges"/><rect fill="#121212" x="378.2" y="513.9" width="12.2" height="24.65" shape-rendering="crispEdges"/><rect fill="#121212" x="390.4" y="513.9" width="24.4" height="24.65" shape-rendering="crispEdges"/><rect fill="#121212" x="414.8" y="513.9" width="536.8" height="24.65" shape-rendering="crispEdges"/><rect fill="#121212" x="951.6" y="513.9" width="24.4" height="24.65" shape-rendering="crispEdges"/><rect fill="#1e1e1e" x="0" y="538.3" width="378.2" height="24.65" shape-rendering="crispEdges"/><rect fill="#121212" x="378.2" y="538.3" width="12.2" height="24.65" shape-rendering="crispEdges"/><rect fill="#121212" x="390.4" y="538.3" width="585.6" height="24.65" shape-rendering="crispEdges"/><rect fill="#242f38" x="0" y="562.7" width="36.6" height="24.65" shape-rendering="crispEdges"/><rect fill="#242f38" x="36.6" y="562.7" width="85.4" height="24.65" shape-rendering="crispEdges"/><rect fill="#242f38" x="122" y="562.7" width="707.6" height="24.65" shape-rendering="crispEdges"/><rect fill="#242f38" x="829.6" y="562.7" width="12.2" height="24.65" shape-rendering="crispEdges"/><rect fill="#242f38" x="841.8" y="562.7" width="24.4" height="24.65" shape-rendering="crispEdges"/><rect fill="#242f38" x="866.2" y="562.7" width="97.6" height="24.65" shape-rendering="crispEdges"/><rect fill="#242f38" x="963.8" y="562.7" width="12.2" height="24.65" shape-rendering="crispEdges"/>
    <g class="terminal-612110395-matrix">
    <text class="terminal-612110395-r2" x="12.2" y="20" textLength="12.2" clip-path="url(#terminal-612110395-line-0)">⭘</text><text class="terminal-612110395-r2" x="366" y="20" textLength="207.4" clip-path="url(#terminal-612110395-line-0)">BranchSelectorApp</text><text class="terminal-612110395-r1" x="976" y="20" textLength="12.2" clip-path="url(#terminal-612110395-line-0)">
</text><text class="terminal-612110395-r3" x="378.2" y="44.4" textLength="12.2" clip-path="url(#terminal-612110395-line-1)">│</text><text class="terminal-612110395-r1" x="976" y="44.4" textLength="12.2" clip-path="url(#terminal-612110395-line-1)">
</text><text class="terminal-612110395-r4" x="12.2" y="68.8" textLength="12.2" clip-path="url(#terminal-612110395-line-2)">▊</text><text class="terminal-612110395-r3" x="24.4" y="68.8" textLength="329.4" clip-path="url(#terminal-612110395-line-2)">▔▔▔▔▔▔▔▔▔▔▔▔▔▔▔▔▔▔▔▔▔▔▔▔▔▔▔</text><text class="terminal-612110395-r3" x="353.8" y="68.8" textLength="12.2" clip-path="url(#terminal-612110395-line-2)">▎</text><text class="terminal-612110395-r3" x="378.2" y="68.8" textLength="12.2" clip-path="url(#terminal-612110395-line-2)">│</text><text class="terminal-612110395-r5" x="414.8" y="68.8" textLength="195.2" clip-path="url(#terminal-612110395-line-2)">Commit&#160;History&#160;-</text><text class="terminal-612110395-r1" x="976" y="68.8" textLength="12.2" clip-path="url(#terminal-612110395-line-2)">
</text><text class="terminal-612110395-r4" x="12.2" y="93.2" textLength="12.2" clip-path="url(#terminal-612110395-line-3)">▊</text><text class="terminal-612110395-r6" x="48.8" y="93.2" textLength="219.6" clip-path="url(#terminal-612110395-line-3)">Search&#160;branches...</text><text class="terminal-612110395-r3" x="353.8" y="93.2" textLength="12.2" clip-path="url(#terminal-612110395-line-3)">▎</text><text class="terminal-612110395-r3" x="378.2" y="93.2" textLength="12.2" clip-path="url(#terminal-612110395-line-3)">│</text><text class="terminal-612110395-r5" x="414.8" y="93.2" textLength="524.6" clip-path="url(#terminal-612110395-line-3)">copilot/add-onboarding-flow-branch-selector</text><text class="terminal-612110395-r1" x="976" y="93.2" textLength="12.2" clip-path="url(#terminal-612110395-line-3)">
</text><text class="terminal-612110395-r4" x="12.2" y="117.6" textLength="12.2" clip-path="url(#terminal-612110395-line-4)">▊</text><text class="terminal-612110395-r3" x="24.4" y="117.6" textLength="329.4" clip-path="url(#terminal-612110395-line-4)">▁▁▁▁▁▁▁▁▁▁▁▁▁▁▁▁▁▁▁▁▁▁▁▁▁▁▁</text><text class="terminal-612110395-r3" x="353.8" y="117.6" textLength="12.2" clip-path="url(#terminal-612110395-line-4)">▎</text><text class="terminal-612110395-r3" x="378.2" y="117.6" textLength="12.2" clip-path="url(#terminal-612110395-line-4)">│</text><text class="terminal-612110395-r1" x="976" y="117.6" textLength="12.2" clip-path="url(#terminal-612110395-line-4)">
</text><text class="terminal-612110395-r3" x="378.2" y="142" textLength="12.2" clip-path="url(#terminal-612110395-line-5)">│</text><text class="terminal-612110395-r7" x="414.8" y="142" textLength="85.4" clip-path="url(#terminal-612110395-line-5)">f709c25</text><text class="terminal-612110395-r8" x="512.4" y="142" textLength="195.2" clip-path="url(#terminal-612110395-line-5)">2026-03-01&#160;18:04</text><text class="terminal-612110395-r1" x="976" y="142" textLength="12.2" clip-path="url(#terminal-612110395-line-5)">
</text><text class="terminal-612110395-r2" x="12.2" y="166.4" textLength="244" clip-path="url(#terminal-612110395-line-6)">&#160;&#160;bugfix/login-issue</text><text class="terminal-612110395-r3" x="378.2" y="166.4" textLength="12.2" clip-path="url(#terminal-612110395-line-6)">│</text><text class="terminal-612110395-r9" x="414.8" y="166.4" textLength="207.4" clip-path="url(#terminal-612110395-line-6)">copilot-swe-agent</text><text class="terminal-612110395-r1" x="976" y="166.4" textLength="12.2" clip-path="url(#terminal-612110395-line-6)">
</text><text class="terminal-612110395-r2" x="12.2" y="190.8" textLength="353.8" clip-path="url(#terminal-612110395-line-7)">→&#160;copilot/add-onboarding-flow</text><text class="terminal-612110395-r3" x="378.2" y="190.8" textLength="12.2" clip-path="url(#terminal-612110395-line-7)">│</text><text class="terminal-612110395-r2" x="414.8" y="190.8" textLength="439.2" clip-path="url(#terminal-612110395-line-7)">Add&#160;complete&#160;TUI&#160;implementation&#160;with</text><text class="terminal-612110395-r1" x="976" y="190.8" textLength="12.2" clip-path="url(#terminal-612110395-line-7)">
</text><text class="terminal-612110395-r2" x="12.2" y="215.2" textLength="305" clip-path="url(#terminal-612110395-line-8)">&#160;&#160;feature/api-integration</text><text class="terminal-612110395-r3" x="378.2" y="215.2" textLength="12.2" clip-path="url(#terminal-612110395-line-8)">│</text><text class="terminal-612110395-r2" x="414.8" y="215.2" textLength="512.4" clip-path="url(#terminal-612110395-line-8)">onboarding,&#160;branch&#160;selector,&#160;and&#160;main&#160;menu</text><text class="terminal-612110395-r1" x="976" y="215.2" textLength="12.2" clip-path="url(#terminal-612110395-line-8)">
</text><text class="terminal-612110395-r2" x="12.2" y="239.6" textLength="305" clip-path="url(#terminal-612110395-line-9)">&#160;&#160;feature/user-management</text><text class="terminal-612110395-r3" x="378.2" y="239.6" textLength="12.2" clip-path="url(#terminal-612110395-line-9)">│</text><text class="terminal-612110395-r1" x="976" y="239.6" textLength="12.2" clip-path="url(#terminal-612110395-line-9)">
</text><text class="terminal-612110395-r3" x="378.2" y="264" textLength="12.2" clip-path="url(#terminal-612110395-line-10)">│</text><text class="terminal-612110395-r7" x="414.8" y="264" textLength="85.4" clip-path="url(#terminal-612110395-line-10)">c815223</text><text class="terminal-612110395-r8" x="512.4" y="264" textLength="195.2" clip-path="url(#terminal-612110395-line-10)">2026-03-01&#160;18:01</text><text class="terminal-612110395-r1" x="976" y="264" textLength="12.2" clip-path="url(#terminal-612110395-line-10)">
</text><text class="terminal-612110395-r3" x="378.2" y="288.4" textLength="12.2" clip-path="url(#terminal-612110395-line-11)">│</text><text class="terminal-612110395-r9" x="414.8" y="288.4" textLength="207.4" clip-path="url(#terminal-612110395-line-11)">copilot-swe-agent</text><text class="terminal-612110395-r1" x="976" y="288.4" textLength="12.2" clip-path="url(#terminal-612110395-line-11)">
</text><text class="terminal-612110395-r3" x="378.2" y="312.8" textLength="12.2" clip-path="url(#terminal-612110395-line-12)">│</text><text class="terminal-612110395-r2" x="414.8" y="312.8" textLength="146.4" clip-path="url(#terminal-612110395-line-12)">Initial&#160;plan</text><text class="terminal-612110395-r1" x="976" y="312.8" textLength="12.2" clip-path="url(#terminal-612110395-line-12)">
</text><text class="terminal-612110395-r3" x="378.2" y="337.2" textLength="12.2" clip-path="url(#terminal-612110395-line-13)">│</text><text class="terminal-612110395-r1" x="976" y="337.2" textLength="12.2" clip-path="url(#terminal-612110395-line-13)">
</text><text class="terminal-612110395-r3" x="378.2" y="361.6" textLength="12.2" clip-path="url(#terminal-612110395-line-14)">│</text><text class="terminal-612110395-r7" x="414.8" y="361.6" textLength="85.4" clip-path="url(#terminal-612110395-line-14)">e3d5d34</text><text class="terminal-612110395-r8" x="512.4" y="361.6" textLength="195.2" clip-path="url(#terminal-612110395-line-14)">2026-03-01&#160;10:01</text><text class="terminal-612110395-r1" x="976" y="361.6" textLength="12.2" clip-path="url(#terminal-612110395-line-14)">
</text><text class="terminal-612110395-r3" x="378.2" y="386" textLength="12.2" clip-path="url(#terminal-612110395-line-15)">│</text><text class="terminal-612110395-r9" x="414.8" y="386" textLength="134.2" clip-path="url(#terminal-612110395-line-15)">Anand&#160;Tyagi</text><text class="terminal-612110395-r1" x="976" y="386" textLength="12.2" clip-path="url(#terminal-612110395-line-15)">
</text><text class="terminal-612110395-r3" x="378.2" y="410.4" textLength="12.2" clip-path="url(#terminal-612110395-line-16)">│</text><text class="terminal-612110395-r2" x="414.8" y="410.4" textLength="170.8" clip-path="url(#terminal-612110395-line-16)">Initial&#160;commit</text><text class="terminal-612110395-r1" x="976" y="410.4" textLength="12.2" clip-path="url(#terminal-612110395-line-16)">
</text><text class="terminal-612110395-r3" x="378.2" y="434.8" textLength="12.2" clip-path="url(#terminal-612110395-line-17)">│</text><text class="terminal-612110395-r1" x="976" y="434.8" textLength="12.2" clip-path="url(#terminal-612110395-line-17)">
</text><text class="terminal-612110395-r3" x="378.2" y="459.2" textLength="12.2" clip-path="url(#terminal-612110395-line-18)">│</text><text class="terminal-612110395-r1" x="976" y="459.2" textLength="12.2" clip-path="url(#terminal-612110395-line-18)">
</text><text class="terminal-612110395-r3" x="378.2" y="483.6" textLength="12.2" clip-path="url(#terminal-612110395-line-19)">│</text><text class="terminal-612110395-r1" x="976" y="483.6" textLength="12.2" clip-path="url(#terminal-612110395-line-19)">
</text><text class="terminal-612110395-r3" x="378.2" y="508" textLength="12.2" clip-path="url(#terminal-612110395-line-20)">│</text><text class="terminal-612110395-r1" x="976" y="508" textLength="12.2" clip-path="url(#terminal-612110395-line-20)">
</text><text class="terminal-612110395-r3" x="378.2" y="532.4" textLength="12.2" clip-path="url(#terminal-612110395-line-21)">│</text><text class="terminal-612110395-r1" x="976" y="532.4" textLength="12.2" clip-path="url(#terminal-612110395-line-21)">
</text><text class="terminal-612110395-r3" x="378.2" y="556.8" textLength="12.2" clip-path="url(#terminal-612110395-line-22)">│</text><text class="terminal-612110395-r1" x="976" y="556.8" textLength="12.2" clip-path="url(#terminal-612110395-line-22)">
</text><text class="terminal-612110395-r10" x="0" y="581.2" textLength="36.6" clip-path="url(#terminal-612110395-line-23)">&#160;/&#160;</text><text class="terminal-612110395-r2" x="36.6" y="581.2" textLength="85.4" clip-path="url(#terminal-612110395-line-23)">Search&#160;</text><text class="terminal-612110395-r11" x="829.6" y="581.2" textLength="12.2" clip-path="url(#terminal-612110395-line-23)">▏</text><text class="terminal-612110395-r10" x="841.8" y="581.2" textLength="24.4" clip-path="url(#terminal-612110395-line-23)">^p</text><text class="terminal-612110395-r2" x="866.2" y="581.2" textLength="97.6" clip-path="url(#terminal-612110395-line-23)">&#160;palette</text>
    </g>
    </g>
</svg>
